<?xml version="1.0" encoding="UTF-8" standalone="no"?><svg xmlns="http://www.w3.org/2000/svg" xmlns:xlink="http://www.w3.org/1999/xlink" fill="#000000" height="21.9" preserveAspectRatio="xMidYMid meet" version="1" viewBox="0.0 0.0 44.0 21.9" width="44" zoomAndPan="magnify"><defs><clipPath id="a"><path d="M 0 0 L 3 0 L 3 21.910156 L 0 21.910156 Z M 0 0"/></clipPath><clipPath id="b"><path d="M 41 0 L 44 0 L 44 21.910156 L 41 21.910156 Z M 41 0"/></clipPath></defs><g><g clip-path="url(#a)" id="change1_1"><path d="M 0 -0.00390625 L 2.464844 -0.00390625 L 2.464844 21.910156 L 0 21.910156 L 0 -0.00390625" fill="#3776af"/></g><g id="change1_3"><path d="M 29.523438 4.265625 L 35.289062 9.589844 L 8.710938 9.589844 L 14.476562 4.265625 L 13.15625 2.8125 L 4.53125 10.824219 L 13.15625 18.875 L 14.476562 17.421875 L 8.710938 12.054688 L 35.289062 12.054688 L 29.523438 17.421875 L 30.890625 18.875 L 39.511719 10.824219 L 30.890625 2.8125 L 29.523438 4.265625" fill="#3776af"/></g><g clip-path="url(#b)" id="change1_2"><path d="M 41.535156 -0.00390625 L 44 -0.00390625 L 44 21.910156 L 41.535156 21.910156 L 41.535156 -0.00390625" fill="#3776af"/></g></g></svg>