<?xml version="1.0" encoding="UTF-8" standalone="no"?><svg xmlns="http://www.w3.org/2000/svg" xmlns:xlink="http://www.w3.org/1999/xlink" fill="#3776af" height="45" preserveAspectRatio="xMidYMid meet" version="1" viewBox="-0.1 9.5 64.2 45.0" width="64.2" zoomAndPan="magnify"><g id="change1_1"><path d="M4.999,44.5a1,1,0,0,1-.88281-1.46777l2-3.77637a.99995.99995,0,1,1,1.76758.93555l-2,3.77636A1.00058,1.00058,0,0,1,4.999,44.5Z" fill="inherit"/></g><g id="change1_2"><path d="M32,43.5A129.41786,129.41786,0,0,1,5.76855,40.47266a.99982.99982,0,1,1,.4629-1.94532A127.31268,127.31268,0,0,0,32,41.5a1,1,0,0,1,0,2Z" fill="inherit"/></g><g id="change1_3"><path d="M32,39.5A113.93491,113.93491,0,0,1,6.749,36.46777a.99978.99978,0,0,1,.502-1.93554A111.81776,111.81776,0,0,0,32,37.5a1,1,0,0,1,0,2Z" fill="inherit"/></g><g id="change1_4"><path d="M6.001,40.5a1.00129,1.00129,0,0,1-.97071-1.24219l1-4a.99952.99952,0,1,1,1.93946.48438l-1,4A.9986.9986,0,0,1,6.001,40.5Z" fill="inherit"/></g><g id="change1_5"><path d="M8,36.74023a.99942.99942,0,0,1-1-1V29.5a1,1,0,0,1,2,0v6.24023A.99942.99942,0,0,1,8,36.74023Z" fill="inherit"/></g><g id="change1_6"><path d="M23.93555,30.5H8a1,1,0,0,1,0-2H23.93555a1,1,0,0,1,0,2Z" fill="inherit"/></g><g id="change1_7"><path d="M8,30.5a.99945.99945,0,0,1-.75293-.34131l-7-8a1.00039,1.00039,0,0,1,1.50586-1.31738l7,8A1.00053,1.00053,0,0,1,8,30.5Z" fill="inherit"/></g><g id="change1_8"><path d="M59.001,44.5a1.00058,1.00058,0,0,1-.88477-.53223l-2-3.77636a.99995.99995,0,1,1,1.76758-.93555l2,3.77637A1,1,0,0,1,59.001,44.5Z" fill="inherit"/></g><g id="change1_9"><path d="M32,43.5a1,1,0,0,1,0-2,127.31268,127.31268,0,0,0,25.76855-2.97266.99982.99982,0,1,1,.4629,1.94532A129.41786,129.41786,0,0,1,32,43.5Z" fill="inherit"/></g><g id="change1_10"><path d="M32,39.5a1,1,0,0,1,0-2,111.81776,111.81776,0,0,0,24.749-2.96777.99978.99978,0,1,1,.502,1.93554A113.93491,113.93491,0,0,1,32,39.5Z" fill="inherit"/></g><g id="change1_11"><path d="M57.999,40.5a.9986.9986,0,0,1-.96875-.75781l-1-4a.99952.99952,0,0,1,1.93946-.48438l1,4A1.00129,1.00129,0,0,1,57.999,40.5Z" fill="inherit"/></g><g id="change1_12"><path d="M56,36.74023a.99942.99942,0,0,1-1-1V29.5a1,1,0,0,1,2,0v6.24023A.99942.99942,0,0,1,56,36.74023Z" fill="inherit"/></g><g id="change1_13"><path d="M56,30.5a1.00053,1.00053,0,0,1-.75293-1.65869l7-8a1.00039,1.00039,0,0,1,1.50586,1.31738l-7,8A.99945.99945,0,0,1,56,30.5Z" fill="inherit"/></g><g id="change1_14"><path d="M32,54.5c-14.47852,0-23.50586-2.26562-26.83008-6.73242A5.41027,5.41027,0,0,1,4.042,43.21289a1.00006,1.00006,0,0,1,1.91992.56055,3.53309,3.53309,0,0,0,.8711,2.877C8.51855,48.835,14.02832,52.5,32,52.5s23.48145-3.665,25.167-5.84961a3.52814,3.52814,0,0,0,.8711-2.87891,1.00816,1.00816,0,0,1,.69336-1.22558.99423.99423,0,0,1,1.22656.667,5.41023,5.41023,0,0,1-1.12793,4.55469C55.50586,52.23438,46.47852,54.5,32,54.5Z" fill="inherit"/></g><g id="change1_15"><path d="M63,20.5a.99974.99974,0,0,1-1-1c-.00488-.05029-.84277-8-30-8S2.00488,19.44971,1.999,19.53027a.97365.97365,0,0,1-1.03027.95264A.98582.98582,0,0,1,0,19.5c0-1.02344.89844-10,32-10s32,8.97656,32,10A.99974.99974,0,0,1,63,20.5Z" fill="inherit"/></g><g id="change1_16"><path d="M1,22.5a.99974.99974,0,0,1-1-1v-2a1,1,0,0,1,2,0v2A.99974.99974,0,0,1,1,22.5Z" fill="inherit"/></g><g id="change1_17"><path d="M63,22.5a.99974.99974,0,0,1-1-1v-2a1,1,0,0,1,2,0v2A.99974.99974,0,0,1,63,22.5Z" fill="inherit"/></g><g id="change1_18"><path d="M32,35.5a10,10,0,1,1,10-10A10.01146,10.01146,0,0,1,32,35.5Zm0-18a8,8,0,1,0,8,8A8.00917,8.00917,0,0,0,32,17.5Z" fill="inherit"/></g><g id="change1_19"><path d="M56,30.5H40.06445a1,1,0,1,1,0-2H56a1,1,0,0,1,0,2Z" fill="inherit"/></g><g id="change1_20"><path d="M32.02246,31.5a5.00589,5.00589,0,0,1-5-5,1,1,0,0,1,2,0,3,3,0,1,0,6,0,1,1,0,0,1,2,0A5.00588,5.00588,0,0,1,32.02246,31.5Z" fill="inherit"/></g><g id="change1_21"><path d="M32.02246,31.5a.99974.99974,0,0,1-1-1v-10a1,1,0,0,1,2,0v10A.99973.99973,0,0,1,32.02246,31.5Z" fill="inherit"/></g><g id="change1_22"><path d="M33.02246,21.5h-2a1,1,0,1,1,0-2h2a1,1,0,0,1,0,2Z" fill="inherit"/></g><g id="change1_23"><path d="M34.02246,25.5h-4a1,1,0,1,1,0-2h4a1,1,0,0,1,0,2Z" fill="inherit"/></g></svg>