<?xml version="1.0" encoding="UTF-8" standalone="no"?><svg xmlns="http://www.w3.org/2000/svg" xmlns:xlink="http://www.w3.org/1999/xlink" fill="#000000" height="1608.2" preserveAspectRatio="xMidYMid meet" version="1" viewBox="195.9 226.9 1608.2 1608.2" width="1608.2" zoomAndPan="magnify"><g><g><g id="change1_2"><path d="M1789.088,1031.02c0,435.802-353.286,789.087-789.084,789.087c-435.808,0-789.094-353.285-789.094-789.087 c0-435.805,353.286-789.093,789.094-789.093C1435.802,241.927,1789.088,595.215,1789.088,1031.02z" fill="#ffffff"/></g><g id="change2_2"><path d="M1000.004,1835.106c-108.546,0-213.853-21.262-312.996-63.195 c-95.752-40.499-181.744-98.475-255.585-172.315c-73.841-73.842-131.817-159.832-172.317-255.584 c-41.934-99.142-63.195-204.447-63.195-312.992c0-108.546,21.262-213.852,63.195-312.994 c40.5-95.753,98.476-181.744,172.317-255.586c73.841-73.841,159.833-131.817,255.585-172.317 c99.143-41.934,204.45-63.195,312.996-63.195c108.544,0,213.849,21.262,312.99,63.195c95.752,40.5,181.742,98.477,255.583,172.317 c73.841,73.842,131.816,159.834,172.316,255.586c41.933,99.143,63.195,204.448,63.195,312.994 c0,108.545-21.262,213.851-63.195,312.992c-40.5,95.752-98.475,181.742-172.316,255.584 c-73.841,73.841-159.832,131.815-255.583,172.315C1213.853,1813.845,1108.548,1835.106,1000.004,1835.106z M1000.004,256.927 c-426.837,0-774.094,347.257-774.094,774.093c0,426.833,347.257,774.087,774.094,774.087 c426.832,0,774.084-347.254,774.084-774.087C1774.088,604.184,1426.835,256.927,1000.004,256.927z" fill="#3776af"/></g></g><g><g id="change1_3"><path d="M1381.809,1065.277c0,215.986-172.729,391.085-385.805,391.085 c-213.076,0-385.801-175.099-385.801-391.085c0-215.992,172.726-391.089,385.801-391.089c84.492,0,162.64,27.534,226.195,74.233" fill="#ffffff"/></g><g id="change2_3"><path d="M996.004,1531.362c-62.303,0-122.772-12.382-179.728-36.803 c-54.907-23.542-104.186-57.212-146.469-100.074c-42.212-42.791-75.354-92.62-98.503-148.102 c-23.955-57.412-36.101-118.345-36.101-181.106c0-62.763,12.146-123.696,36.101-181.109 c23.149-55.482,56.291-105.312,98.503-148.103c42.283-42.862,91.562-76.532,146.469-100.074 c56.956-24.421,117.425-36.803,179.728-36.803c97.974,0,191.547,30.705,270.604,88.795l-88.819,120.877 c-53.128-39.038-115.988-59.672-181.785-59.672c-171.376,0-310.801,141.797-310.801,316.089 c0,174.29,139.425,316.085,310.801,316.085c171.378,0,310.805-141.795,310.805-316.085h150 c0,62.762-12.146,123.694-36.102,181.107c-23.15,55.481-56.292,105.31-98.505,148.101 c-42.283,42.862-91.563,76.532-146.47,100.074C1118.776,1518.98,1058.306,1531.362,996.004,1531.362z" fill="#3776af"/></g></g><g><g id="change1_1"><path d="M974.97 1062.031L1455.367 1062.031" fill="#ffffff"/></g><g id="change2_1"><path d="M974.971 987.031H1455.368V1137.031H974.971z" fill="#3776af"/></g></g></g></svg>