<?xml version="1.0" encoding="UTF-8" standalone="no"?><svg xmlns="http://www.w3.org/2000/svg" xmlns:xlink="http://www.w3.org/1999/xlink" fill="#000000" height="231.8" preserveAspectRatio="xMidYMid meet" version="1.1" viewBox="85.9 99.0 253.5 231.8" width="253.5" zoomAndPan="magnify">
 <g id="surface1">
  <g id="change1_1"><path d="m315.12 99.02h-205.05c-13.367 0-24.207 10.84-24.207 24.21v135.33c0 13.37 10.84 24.21 24.207 24.21h42.51s-9.66 26.03-26.29 42.66c-5.39 5.39 87.64-19.27 101.79-42.66h87.04c13.38 0 24.21-10.84 24.21-24.21v-135.33c0-13.37-10.83-24.21-24.21-24.21" fill="#ffffff"/></g>
  <g id="change2_1"><path d="m167.43 191.35c0 9.13-7.41 16.54-16.54 16.54-9.14 0-16.54-7.41-16.54-16.54 0-9.14 7.4-16.54 16.54-16.54 9.13 0 16.54 7.4 16.54 16.54" fill="#ffde59"/></g>
  <g id="change2_2"><path d="m229.14 191.35c0 9.13-7.41 16.54-16.54 16.54-9.14 0-16.54-7.41-16.54-16.54 0-9.14 7.4-16.54 16.54-16.54 9.13 0 16.54 7.4 16.54 16.54" fill="#ffde59"/></g>
  <g id="change2_3"><path d="m290.85 191.35c0 9.13-7.41 16.54-16.54 16.54s-16.54-7.41-16.54-16.54c0-9.14 7.41-16.54 16.54-16.54s16.54 7.4 16.54 16.54" fill="#ffde59"/></g>
 </g>
</svg>