<?xml version="1.0" encoding="UTF-8" standalone="no"?><svg xmlns="http://www.w3.org/2000/svg" xmlns:xlink="http://www.w3.org/1999/xlink" fill="#ffde59" height="172.1" preserveAspectRatio="xMidYMid meet" version="1" viewBox="-1.7 432.1 604.0 172.1" width="604" zoomAndPan="magnify"><g id="change1_1"><path d="M188.5,599.7c0.1,0.2,0.2,0.5,0.1,0.7c-0.1,0.5-0.7,0.9-1.2,0.8c-5.9-1.3-11.9-3-18-5.1c-1.6-0.5-3.2-1.1-4.8-1.6 c-16.4-5.6-33.4-11.4-50.8-11.4l-0.4,0c-16.8,0.1-32.3,6-47.5,18c-0.2,0.1-0.4,0.2-0.6,0.2c0,0-0.1,0-0.1,0c-0.3,0-0.5-0.2-0.7-0.4 c-0.3-0.4-0.3-1.1,0.2-1.4c15.5-12.3,31.5-18.3,48.7-18.4l0.4,0c17.8,0,34.9,5.9,51.5,11.5c1.6,0.6,3.2,1.1,4.8,1.6 c6,2,12,3.7,17.8,5C188.2,599.3,188.4,599.4,188.5,599.7z M473.5,561.8c-7.5,2.2-12.2,7.7-12.9,14.9c-1.2,11.6,5.9,15.5,8.9,16.7 c5.1,1.9,10.9,0.8,13.2-2.4c1.4-2,1.9-4,1.5-5.9c-0.6-3.1-3.3-5-3.4-5c-0.7-0.4-1.6-0.3-2,0.4c-0.5,0.7-0.3,1.6,0.4,2 c0,0,0.4,0.3,0.8,0.7c-0.1,0.5-0.2,1.1-0.6,1.6c-0.5,0.5-1.3,0.7-2.5,0.6c-0.8-0.1-1.4-0.4-1.9-1c-1-1.2-1.1-3.1-1-4.4 c0.3-2.9,2.5-4.8,5.8-5.3c2.2-0.3,4.7-0.1,6.7,0.7c3.2,1.2,5.6,3.6,6.9,7c1.7,4.4,1.4,9.9-0.8,14.4c-0.5,1.1-1.1,2-1.8,2.9 c-0.2,0.2-0.2,0.5-0.2,0.7s0.2,0.5,0.4,0.7c0.4,0.3,1.1,0.2,1.4-0.2c0.8-1,1.5-2.1,2-3.3c2.5-4.9,2.8-11,0.9-16 c-1.5-3.9-4.3-6.7-8-8.1c-2.2-0.9-5.2-1.2-7.6-0.8c-4.3,0.6-7.1,3.2-7.5,7c-0.2,1.7,0,4.2,1.4,5.9c0.8,1,1.9,1.6,3.3,1.8 c1.8,0.2,3.2-0.2,4.1-1.2c0.2-0.2,0.3-0.4,0.5-0.6c0,0,0,0.1,0,0.1c0.2,1.2-0.1,2.4-1,3.7c-1.3,1.9-5.7,2.9-9.8,1.4 c-2.4-0.9-8-4.1-7-13.6c0.6-6,4.6-10.5,10.8-12.4c7.3-2.2,18-0.4,24.2,7.2c10.2,12.6,4.9,28.1,4.8,28.3c-0.3,0.8,0.1,1.6,0.9,1.9 c0.2,0.1,0.3,0.1,0.5,0.1c0.6,0,1.2-0.4,1.4-1c0.3-0.7,6-17.2-5.3-31.2C494.5,562.2,483.3,558.9,473.5,561.8z M523.7,577.3 c-12-21.6-22-31.9-46.6-32c-12.5,0-23.3,5.2-29.4,14.2c-6.1,8.9-6.9,20.3-2.3,32.2c1.2,3.1,3.3,6.3,5.8,9.1c0.2,0.2,0.5,0.3,0.7,0.3 c0.2,0,0.5-0.1,0.7-0.3c0.2-0.2,0.3-0.4,0.3-0.7c0-0.3-0.1-0.5-0.3-0.7c-2.4-2.6-4.3-5.6-5.4-8.5c-4.4-11.3-3.6-22,2.1-30.4 c5.8-8.5,15.9-13.3,27.9-13.3c23.6,0,33.2,10,44.9,30.9c5.1,9.2,9.5,16.7,15.1,22.6c0.2,0.2,0.4,0.3,0.7,0.3c0.3,0,0.5-0.1,0.7-0.3 c0.2-0.2,0.3-0.4,0.3-0.7c0-0.3-0.1-0.5-0.3-0.7C533,593.8,528.7,586.4,523.7,577.3z M600.9,536.6c0,0.4-0.1,0.8-0.4,1.1 c-0.3,0.3-0.6,0.5-1,0.5c-0.7,0-1.2-0.4-1.4-1c-1.3-0.8-12.4-7.4-30-1.7c-10.9,3.5-19.7,15.9-19.2,26.9c0.1,1.6,0.3,3.3,0.8,4.9 c0,0.1,0,0.1,0.1,0.2c2.7,9.2,11.3,16.1,20.2,16.1c0.1,0,0.3,0,0.4,0c5.9-0.1,13.3-3.1,15.9-9.1c1.3-3,1-6.7-0.6-9.1 c-0.9-1.3-2.5-2.9-5.6-3c-0.1,0-0.1,0-0.2,0c-2.3,0-6.1,1.4-7,2.8c-1.9,3.2-1.2,6.3,0.5,7.5c1.5,1.2,3.6,0.7,5.5-1.3 c0.6-0.6,1.5-0.6,2.1,0c0.6,0.6,0.6,1.5,0,2.1c-1.4,1.5-2.9,2.4-4.4,2.7c-1.1,0.5-2.1,0.7-3.2,0.8l-0.2,0c-2.3,0-4.4-1-6.4-3 c-3.5-3.5-4.7-9.8-2.8-14.8c1.2-3.2,4.7-8.8,14.5-9.4c8.1-0.6,15.4,2.1,21,7.6c0.4,0.4,0.4,1,0,1.4c-0.2,0.2-0.4,0.3-0.7,0.3h0 c-0.3,0-0.5-0.1-0.7-0.3c-5.2-5.1-11.9-7.6-19.5-7.1c-8.7,0.6-11.8,5.4-12.8,8.2c-1.6,4.4-0.7,9.7,2.3,12.7c0.8,0.8,1.7,1.5,2.5,1.9 c-2.2-2.3-3-6.5-0.5-10.7c1.8-2.9,7.2-4.4,9.7-4.3c2.5,0.1,4.8,0.9,6.5,2.6c3.5,1.9,8,5.8,9.5,13.8c1.2,6.2-0.6,12.2-5,16.9 c-4.6,4.9-11.6,7.9-18.8,7.9c-1,0-2-0.1-3-0.2c-15-1.7-21.2-4.6-36.8-32.7c-15.8-28.3-31.2-44.2-63.8-41.3 c-3.5,0.6-6.9,1.5-10.2,2.7c-12.9,4.7-22.2,13.3-26.2,24.1c-0.4,2.2-1,4.3-1.9,6.3c-0.1,0.3-0.2,0.5-0.4,0.8l-0.1,0.1 c-6.6,25.3,3.4,38.8,3.5,38.9c0.5,0.6,0.4,1.6-0.3,2.1c-0.6,0.5-1.6,0.4-2.1-0.3c-0.2-0.2-1.6-2-3-5.4c-2.1,0.4-6.6,1.3-12.1,1.3 c-9.5,0-22.2-2.5-29.5-14.2c-7.6-12.3-3.5-26,4.5-33.1c6.4-5.7,14.1-6.3,20.1-1.6c0,0,0,0,0,0c1.7,1.1,2.8,2.7,3.2,4.6 c0.8,3.3-0.3,6.5-2.8,8c-2.4,1.5-5.4,1-8-1.2c-0.3-0.2-0.4-0.6-0.5-0.9c0,1.1,0.3,2.2,0.9,3.3c1.4,2.3,4,3.5,6.7,3.1 c5.6-0.8,7.8-4.5,8.7-7.5c1.9-6.3-0.5-14.9-5.3-19.1c-5.7-5-16.4-6.2-25.6-3c-5.9,2.1-16.1,8-18.7,23.7c-4.5,27.5,18,40.2,18.2,40.3 c0.2,0.1,0.4,0.3,0.5,0.6c0.1,0.3,0,0.5-0.1,0.8c-0.2,0.3-0.5,0.5-0.9,0.5c-0.2,0-0.3,0-0.5-0.1c-0.2-0.1-24-13.4-19.2-42.3 c2.8-16.7,13.7-23,20-25.3c9.8-3.5,21.3-2.1,27.5,3.3c5.3,4.6,8,14.1,5.9,21.1c-1.5,5-5.1,8.2-10.3,8.9c-3.5,0.5-6.8-1-8.7-4 c-1.8-3-1.7-6.6,0.4-9.5c0.1-0.2,0.4-0.4,0.6-0.4c0.3,0,0.5,0,0.7,0.2c0.2,0.2,0.4,0.4,0.4,0.6c0,0.3,0,0.5-0.2,0.7 c-0.8,1.2-1.2,2.5-1.3,3.8c0-0.3,0.1-0.6,0.3-0.9c0.5-0.6,1.5-0.7,2.1-0.1c1.5,1.3,3.2,1.7,4.5,0.9c1.4-0.8,1.9-2.7,1.4-4.8 c-0.3-1.4-1.3-2.5-2.7-3.3c-2.2-1.2-5.5-1.3-8-0.4c-4.2,1.6-7,7.2-5.9,11.9c0.7,3.4,3,6.5,6.2,8.5c3.2,2,6.9,2.7,10.2,1.9 c6.8-1.6,12.8-6.5,15.9-12.7c0.6-2.2,1.2-4.4,2-6.5c0.1-0.1,0.1-0.3,0.2-0.4c0-0.1,0.1-0.2,0.1-0.3c1.6-9.4-2.2-19.6-10.4-27.8 c-6.3-6.3-14.5-10.4-24.3-12.2c-29.3,0.7-49.2,16.7-53.4,42.9c-4.8,30.4,11,43.5,11.1,43.7c0.2,0.2,0.3,0.4,0.4,0.7 c0,0.3,0,0.5-0.2,0.7c-0.3,0.4-1,0.5-1.4,0.2c-0.2-0.1-16.9-13.8-11.9-45.5c3.8-24,19.9-39.6,44.4-43.6c-8.2-0.1-15.4,1.2-19.4,2.2 c-12.1,2.8-23.7,9.4-30.9,17.7c-9.8,11.3-14.7,28.6-13.5,47.5l0,0.5c0.4,6.6,0.9,14.8,4.6,20.3c0.5,0.7,0.3,1.6-0.4,2.1 c-0.7,0.4-1.6,0.2-2.1-0.4c-1.3-1.9-2.3-4.2-3-6.9c-1.7,4.7-2.4,5.8-2.5,5.9c-0.2,0.2-0.5,0.3-0.7,0.1l-0.8-0.6 c-0.2-0.2-0.3-0.5-0.1-0.7c0,0,0.9-1.4,3.2-8.3c-0.7-3.9-1-7.8-1.2-11.3l0-0.5c-0.4-7-0.1-13.9,1.1-20.5c-0.1-0.2-0.2-0.4-0.3-0.7 c-1.4-12.8-6.7-23.3-15.8-31.2c-2.9-2.5-6.3-4.6-10.1-6.2c-0.1,0-0.1-0.1-0.2-0.1c-4-1.6-8.6-2.8-13.4-3.3 c-4.3-0.5-8.8-0.3-13.1,0.6c7.3,0.7,14.4,2.7,20.6,5.7c12.1,6,20.6,18.1,23.4,33.3c3.2,17.5-1.5,35.6-12.4,47.3 c-0.4,0.4-1,0.4-1.4,0c-0.2-0.2-0.3-0.4-0.3-0.7s0.1-0.5,0.3-0.7c10.4-11.2,15-28.6,11.9-45.6c-2.7-14.6-10.8-26.2-22.3-31.9 c-7.6-3.8-16.7-5.8-25.7-5.8c-3.5,1.3-6.6,3-9.2,5.1c7.3-2.7,19.3-4.1,32.2,6.7c9.6,8.1,14.5,22.3,12.8,37.2 c-1.8,15-9.6,27.4-21,33.1c-0.5,0.2-1.1,0-1.3-0.4c-0.2-0.5,0-1.1,0.4-1.3c10.8-5.4,18.2-17.2,19.9-31.5c1.7-14.2-3-27.8-12.1-35.4 c-16.1-13.6-30.9-6.6-35.2-4.1c-0.6,0.8-1.2,1.5-1.7,2.4c2.6-2,6-3.3,10.2-3.8c8.1-0.9,16.4,2.8,22.2,10.1 c6.9,8.6,8.6,20.4,4.7,31.4c-4.1,11.6-16.7,26.2-39.7,32.8c-0.5,0.1-1.1-0.2-1.2-0.7c-0.1-0.3,0-0.5,0.1-0.8 c0.1-0.2,0.3-0.4,0.6-0.5c22.3-6.3,34.4-20.4,38.4-31.5c3.7-10.4,2-21.4-4.4-29.5c-5.4-6.7-13-10.3-20.4-9.4 c-5.1,0.6-8.9,2.4-11.3,5.5c-1.2,1.6-2,3.4-2.4,5.6c-0.2,2.2-0.1,7.7,4.3,9.1c1.2,0.4,2.2,0.4,2.9,0.2c-1.8-1-3.5-3-3.7-4.3 c-0.5-2.7,0.5-5.5,2.7-7.8c2.3-2.4,5.5-3.7,8.3-3.3c5.3,0.7,9.8,3.6,12.5,8.2c3.2,5.3,3.8,12.3,1.7,18.3 c-3.7,10.2-12.5,19.4-22.4,23.2c-10,3.9-21.3,5.3-33.4,4c-16.1-1.7-31.5-7.5-46.4-13.2c-18.9-7.1-38.3-14.5-59.2-13.3 c-49.2,2.9-63.1,39.2-63.3,39.6c-0.2,0.5-0.8,0.8-1.3,0.6c-0.2-0.1-0.4-0.3-0.6-0.5s-0.1-0.5,0-0.8c0.1-0.4,14.5-37.9,65-40.9 c21.3-1.2,40.9,6.2,60,13.4c14.8,5.6,30,11.4,45.9,13.1c11.9,1.2,22.8,0,32.5-3.9c9.4-3.7,17.7-12.3,21.2-22.1 c2-5.4,1.4-11.8-1.5-16.6c-1.7-2.9-5.1-6.4-11.1-7.2c-2.2-0.3-4.8,0.8-6.6,2.7c-0.2,0.3-0.5,0.5-0.7,0.8c2.3-1.4,5.7-1.6,8.4-1 c0.6,0.1,1,0.3,1.4,0.4c8.1,3.3,8.3,13.3,8.2,16.3c-0.3,6.7-4.3,12.6-11.4,16.6c-12.1,6.8-34.9,8.7-62.4-6.6 c-28.7-15.9-54.1-23.8-77.4-24.3c-0.1,0-0.1,0-0.2,0c-7-0.1-13.9,0.4-20.5,1.7c0,0-0.1,0-0.2,0c-6.5,1.3-13,3.2-19.2,5.9 c-37.7,16.1-50.3,52.1-50.4,52.5c-0.3,0.8-1.1,1.2-1.9,0.9c-0.8-0.3-1.2-1.1-0.9-1.9c0-0.1,3.3-9.7,11.8-21.5 c2.5-8.2,0.5-17.7-5.2-24c-3.1-3.5-6.9-5.8-10.9-6.5c-4.4-0.8-8.8,0.5-11.6,3.5c-2.9,3.1-3.6,7.9-1.6,11.3c0.6,1,1.3,1.9,2.2,2.5 c-0.5-1.5-0.5-3.2,0.1-4.8c0.8-2.2,2.6-3.9,5-4.7c2.7-1,5.7-0.8,8.1,0.5c0.8,0.4,1.6,1,2.3,1.7c0,0,0.1,0,0.1,0.1 c0.1,0.1,0.1,0.1,0.2,0.2l0.1,0.1l-0.3,0.5l0.4-0.3c5,5.3,4.4,12.7,2.3,16.2c-2.2,3.7-5.9,6.1-9.2,7.9c-0.7,0.4-1.4,0.8-2.1,1.1 c-2.6,1.3-5.2,2.7-7.4,4.6c-3.5,3-5.7,7.5-6,12.1v-9.4c1.1-1.8,2.5-3.5,4.1-4.9c0.8-0.7,1.8-1.4,2.9-2.2c-2.4-0.1-4.7-0.6-7-1.5 v-3.2c3.5,1.5,7.2,2.1,10.7,1.4c6.2-1.1,11.4-6.4,12-12.1c0.3-2.9-0.5-5.9-2.4-8l-0.1-0.1c-0.1-0.1-0.1-0.1-0.2-0.2 c-0.6-0.6-1.2-1.1-1.8-1.4c-1.6-0.9-3.7-1-5.6-0.3c-1.6,0.6-2.8,1.7-3.3,3c-0.5,1.2-0.4,2.9,0.6,3.8c0.4,0.4,1.1,0.5,1.7,0.4 c0.3-0.1,0.8-0.2,0.9-0.7c0.3-0.8,1.2-1.1,1.9-0.8c0.4,0.2,0.6,0.4,0.8,0.8c0.2,0.4,0.2,0.8,0,1.1c-0.5,1.2-1.6,2.1-3,2.4 c0,0,0,0,0,0c-2.8,1.9-6.2,2.2-9.3,1c-1.1-0.4-2.1-1-3.1-1.7V565c1.1,1.1,2.4,1.9,3.8,2.4c1.5,0.6,3,0.7,4.4,0.5 c-2.2-0.6-4.2-2.1-5.6-4.4c-2.4-4.1-1.6-10,1.9-13.7c2.6-2.7,6.5-4.3,10.5-4.3c0.9,0,1.9,0.1,2.8,0.2c4.4,0.8,8.6,3.3,12,7.1 c5.1,5.7,7.5,13.9,6.5,21.6c4.6-5.8,9.7-11.1,15.3-15.6c-2-10.7-7.8-19.9-15.9-25.2c-9.1-6-21-6.6-29.7-1.5 c-2.3,1.4-4.4,3.2-6.1,5.3v-3c1.5-1.5,3.2-2.9,5.1-4c9.3-5.5,22.1-4.8,31.8,1.6c8.3,5.5,14.3,14.7,16.5,25.5 c4.7-3.6,9.7-6.8,14.9-9.4c0-0.1,0-0.2,0-0.3c-0.3-12.7-9.8-24.9-25.4-32.5c-5.4-2.7-11.4-4-17.5-4c-8.5,0-17.1,2.6-24,7.6 c-0.5,0.4-0.9,0.7-1.4,1.1v-3.7c5.4-3.9,11.9-6.5,18.9-7.5c1-2.6,2.1-5.2,3.3-7.7c9.1-18.8,24-31.8,43.3-37.7 c19.1-5.9,39.2-3.5,51.5,1.5c-1-1.1-1.9-2.1-2.9-3.1c-13.6-13.4-32.3-19.7-52.6-17.7C16.7,448.8,0.5,482,0.3,482.4 c-0.2,0.4-0.5,0.7-0.9,0.8V478c5.3-8.7,23.5-32.9,61.2-36.7c21.2-2.2,40.7,4.4,55,18.5c6.6,6.5,11.7,14.3,14.7,22.5 c8.8-4.4,19.8-5.9,30.3-4.2c2.2,0.4,4.4,1.1,6.5,2.1c0.1-4.1,1-8.2,2.5-11.8c6.1-14.7,22.1-19.9,35.2-19.9c0.2,0,0.3,0,0.5,0 c22.8,0.3,35.9,15.3,40.7,29.3c0.2,0.5,0.3,0.9,0.4,1.4c5.3-6.2,22.5-22.5,56.3-22.1c15.4,0.2,28.2,4.4,38.3,12.6 c1.4-6.6,8.4-29.8,41-29c30.9,0.8,46.2,28.5,49.7,35.8c0.1-0.1,0.1-0.1,0.2-0.2c8-8.2,22.5-12.5,38.9-11.4c8.2,0.6,16,2.4,23.2,5.5 c5.2-17.8,20.3-30.6,40.6-34.5c19.9-3.8,41.6,3.3,55.2,17.9c6.1,6.6,9.9,13.9,11.1,21.3c1.4,8.5-0.9,17.1-6.2,23 c-4.6,5.2-11.5,8.3-18.5,8.3c-1.7,0-3.4-0.2-5-0.6c-1.6-0.4-3.1-0.9-4.5-1.7c3.1,2.4,6.5,4.3,9.6,6c0.6,0.3,1.3,0.7,1.9,1l0.3,0.2 c4.6,2.4,9.4,5,13.5,8.5C597.5,524.7,600.7,530.7,600.9,536.6z M427,592.9c-1.9-5.5-3.5-14.3-1.5-26.1c-3.7,4-8.5,6.9-13.6,8.1 c-4.1,1-8.7,0.2-12.5-2.2c-3.9-2.4-6.6-6.2-7.5-10.4c-0.9-4.2,0.5-8.9,3.3-12.1c-0.8,0.5-1.5,1.1-2.2,1.7c-7.1,6.3-10.7,18.4-4,29.3 C399,597.4,421.3,594,427,592.9z M570.4,443.4c-12.7-4.7-27.5-3.1-38.7,4.3c-11.5,7.6-19.1,21.4-19.4,35.3c1.2,1.3,2.3,2.5,3.2,3.8 c11.2,15.1,12.9,30.1,12.2,40.3c2.4-1.2,4.6-2.1,6.9-2.8c-8.8-14-10-32.7-3.1-47.8c3.4-7.4,8.4-13.5,14.5-17.5 c6.7-4.4,14.8-6.2,22.1-4.9c8,1.4,14.8,6.6,18,13.6c2.6,5.7,2.2,12.4-0.9,16.9c-2.9,4.2-7.5,6.1-12,4.9c-1.2,0-2.4-0.2-3.4-0.7 c-0.2-0.1-0.4-0.3-0.5-0.6c-0.1-0.2-0.1-0.5,0-0.8c0.1-0.1,0.1-0.2,0.2-0.3c0-0.1,0-0.3,0.1-0.4c0.3-0.7,1-1,1.7-0.8 c0.2-0.1,0.4-0.1,0.6,0c0.7,0.2,1.3,0.1,1.8-0.3c0.7-0.5,1-1.5,1.1-2.7c0-1.4-0.7-2.8-1.9-3.9c-0.2-0.1-0.4-0.2-0.6-0.3 c-2.7-1.1-6.2-0.6-8.8,1.3c-2.4,1.8-3.9,4.6-4.2,7.8c-0.6,6.8,5,13.7,12.6,15.5c7.2,1.7,15.5-1.1,20.7-6.9c4.7-5.3,6.8-13,5.5-20.6 c-1.1-6.8-4.7-13.6-10.4-19.8C582.8,450.7,577,446.5,570.4,443.4z M496.5,471.6c5.3,2.6,9.9,5.7,13.8,9.4c0.9-14,8.5-27.4,20.2-35 c7.4-4.8,16.4-7.4,25.5-7.2c-7-1.3-14.2-1.3-21.1,0C515.6,442.5,501.3,454.7,496.5,471.6z M436.9,475.8c7-4.1,17.1-7.5,30.9-6.3 c12.1,1.1,21.6,5.9,28.4,14.1c8,9.8,11.6,24.6,10,41.6c6.1,2.2,11.9,5.4,17.3,9.7c1.6-6.6,4.5-26.4-10.4-46.4 c-8.7-11.7-24.6-19.4-42.6-20.6C457.1,467,444.7,470,436.9,475.8z M247.2,482.8c0.9,4.1,1.2,8.1,1,12.1c3.9-8.2,9.3-15,16.3-20.3 c12.9-9.7,26.3-13.4,37.3-14.5c-0.2,0-0.4,0-0.5,0C265.3,460.1,249.5,479.7,247.2,482.8z M131.2,485.1c0.8,2.6,1.4,5.3,1.7,7.8 c3.6-1.7,7.9-2.5,12.4-2.5c2.2,0,4.5,0.2,6.7,0.6c16.1,3.1,20.2,15.5,21.1,20.2c2.9-1,5.9-1.9,9-2.5c-0.1-0.7-0.2-1.5-0.4-2.2 c-3.6-1.9-7.4-5.2-9.6-8.2c-2.9-4.1-4.6-9.1-5-14.6c-2.3-1.4-4.7-2.3-7.1-2.6C150,479.4,139.5,480.9,131.2,485.1z M133.1,501.2 c-0.1,1.2-0.3,2.5-0.6,3.7c3.7-3,8.3-4.6,12.8-4.6c2,0,4,0.3,5.8,0.9c9.9,3.3,11.9,10.6,12.2,14.3c2.5-1.4,5.1-2.7,7.8-3.7 c-0.8-4.2-4.3-16-19.6-18.9c-6.7-1.3-13.4-0.5-18.5,2.1C133.3,497.3,133.3,499.3,133.1,501.2z M128.1,515.4 c-0.5,2.2-0.4,4.5,0.2,6.6c1.9,6.7,7.5,9.6,11.9,9c1.1-0.2,4.8-1,5.4-5.4c-0.2-0.5-0.5-1-0.8-1.6c-0.7,1.3-1.9,2.3-3.9,2.9 c-3.3,1.1-6.9-0.6-8.6-4.1c-1.9-3.9-1.3-9.5,4.2-13.3c4.2-2.9,8.8-3.2,12.6-0.9c3.9,2.3,6.2,7.1,6.1,12.4c2-1.6,4.1-3,6.3-4.4 c0-2.7-1.1-10.2-11-13.5c-6-2-13.1-0.3-17.9,4.3c-0.4,0.4-0.8,0.8-1.2,1.3C130.6,511.2,129.5,513.4,128.1,515.4z M149.1,526.5 c0.9-0.9,1.9-1.8,2.8-2.6l0.3-1.6c0.5-4.7-1.3-9-4.6-11c-2.8-1.7-6.2-1.4-9.4,0.8c-4.1,2.8-4.6,6.8-3.2,9.5c0.9,1.8,2.8,3.3,5,2.6 c1.3-0.4,2-1,2.2-1.7c0.4-1.3-0.8-3.2-1.3-3.8c-0.5-0.6-0.4-1.5,0.2-2c0.3-0.2,0.6-0.4,1-0.4c0.4,0,0.8,0.2,1.1,0.5 C143.3,516.8,147.2,520.9,149.1,526.5z M146.6,528.6c-0.2,0.4-0.4,0.7-0.6,1c0.2-0.2,0.4-0.5,0.7-0.7 C146.7,528.8,146.7,528.7,146.6,528.6z M43.9,505.7c10.9-22.8,40.2-34.4,61.2-32c10.7,1.2,18.7,5.7,23.5,13 c-1.8-6.3-5-12.5-9.3-18.1c-11.4-6-33-9.5-53.8-3.2c-18.7,5.7-33.3,18.4-42.1,36.7c-1,2.1-2,4.3-2.9,6.6c1.4-0.1,2.9-0.2,4.3-0.2 c5.7,0,11.4,1.1,16.5,3.2C42.1,509.6,43,507.6,43.9,505.7z M65,530.6c-0.5-8.3,1.3-19.8,11.3-31c12.3-13.7,32-13.5,42.7-4.8 c5.3,4.4,9.1,12,4.8,21c3.5-3.6,5.9-9,6.4-14.9c0.2-2,0.2-4.2-0.1-6.6c-3.4-10.7-12.3-17.3-25.3-18.8c-20.3-2.3-48.6,8.9-59.2,30.9 c-0.9,1.9-1.7,3.9-2.5,5.9c0.1,0.1,0.3,0.1,0.4,0.2C52.9,517.2,60.3,523.4,65,530.6z M89.2,540.2c-6.2-4.5-9.8-12.8-8.9-20.7 c1-8.8,6.5-16.1,14.3-19c6.5-2.4,15.4-2.7,19.8,2.6c2.4,2.9,2.9,6.2,1.2,8.8c-1.4,2.2-4.1,3.4-6.3,2.8c-1-0.3-3.4-1.3-3.6-5.4 c0-0.8,0.6-1.5,1.4-1.5c0.4,0,0.7,0.1,1,0.3c0.3,0.3,0.5,0.7,0.5,1.1c0,0.9,0.3,2.4,1.4,2.7c1,0.3,2.3-0.4,3-1.5 c0.9-1.5,0.6-3.4-1-5.3c-0.8-0.9-1.8-1.7-3.1-2.2c-0.2,0.1-0.5,0.1-0.7,0c-2.8-0.6-7,2.2-8.2,4.9c-1.7,3.8-1.4,7.1,0.8,9.5 c3.5,3.7,11.1,4.9,16.7,2.8c0.6-0.2,1.2-0.5,1.9-0.9c0-0.1,0.1-0.1,0.1-0.1c6.1-8.2,5.4-16.6-1.9-22.5c-9.9-8.1-28.4-8.2-39.9,4.6 c-11.3,12.5-11.8,25.4-10.3,34.1c1.4,3.1,2.4,6.3,2.8,9.5c0.3,0.7,0.6,1.3,0.8,1.7c0.7-0.3,1.3-0.6,2-0.9 C78.3,543.3,83.7,541.5,89.2,540.2z M111.3,537.6c-2.6-3.9-4-8.7-4.2-14.1c-3.5-0.7-6.4-2.2-8.3-4.3c-2.2-2.3-4.2-6.4-1.4-12.8 c0.7-1.7,2.2-3.3,4-4.5c-1.9,0.2-3.9,0.7-5.7,1.4c-6.7,2.5-11.5,8.9-12.4,16.6c-0.9,7.9,3.6,16.4,10.3,19.5 C99.2,538.2,105.2,537.7,111.3,537.6z M138.7,539.4c-0.9,0.2-1.8,0.3-2.8,0.3c-5,0-9.9-2.2-13.1-5.9c-3.1-3.5-4.3-7.7-4.8-10.8 c-2,0.7-4.2,1-6.4,1c-0.5,0-1,0-1.6-0.1c0.3,5.5,2,10.2,5,13.8c7.4,0.2,15.1,1.2,23,2.9C138.2,540.2,138.4,539.9,138.7,539.4z M140.3,537c1.4-2.1,3-4.1,4.7-6.1c-1.2,1.1-2.8,1.8-4.6,2.1c-0.5,0.1-0.9,0.1-1.4,0.1c-4.7,0-10.6-3.3-12.6-10.5 c-0.4-1.4-0.6-2.9-0.6-4.4c-1.7,1.7-3.6,3.1-5.8,4.1c0.4,2.9,1.5,7,4.4,10.3C128.7,537.6,135.8,538.6,140.3,537z M221.4,572.6 c-1-2.4-3.9-6.9-12.7-9.9c-8.7-2.9-14.2-2-16.9-1.1c0.5,0.3,1,0.5,1.5,0.8C202.7,567.6,212.1,571,221.4,572.6z M238.2,573.2 c-1.9-8.2-8.3-21.8-29.1-25.8c-16.7-3.2-30.6,2.5-35.7,5c5.2,2.3,10.6,5,16.1,7.9c2.4-1.2,8.6-3.3,19.8,0.4 c10.9,3.7,13.6,9.5,14.3,12.1C228.7,573.6,233.6,573.7,238.2,573.2z M246.2,552.3c3.1,4.7,5.7,10.1,7.5,16.1c5.4-3.4,8.6-8,8.9-13.2 c-2.1-5-4.7-9.8-7.7-14.1c-2.2-0.4-5.3,0-6.5,1.4c-0.8,1-0.6,1.8-0.3,2.3c0.4,0.7,1,1.1,1.4,1c0.4-0.1,0.8-0.7,1-1.7 c0.2-0.7,0.8-1.2,1.6-1.2c0.8,0.1,1.3,0.7,1.3,1.5c0,0.2-0.1,4.7-3,6.8c0,0,0,0,0,0C249.3,552.1,247.9,552.4,246.2,552.3z M238.6,545.9c-6-6.1-13.6-10.3-22.4-12.5c-31.4-7.7-54.2,7.6-60,12.1c4.8,1.7,9.9,3.6,14.9,5.8c2.8-1.5,13.8-6.9,28-6.9 c3.3,0,6.8,0.3,10.4,1c22.1,4.2,28.7,18.9,30.7,27.5c4.4-0.7,8.5-1.9,11.8-3.6c-2.1-6.8-5-12.9-8.8-18 C241,550.4,239.4,548.5,238.6,545.9z M242.8,527.4c-15.3-13.3-35.3-19.1-56.2-16.4c-27.8,3.6-42.2,24.7-45.6,30.3 c4.2,1,8.5,2.2,12.9,3.7c5-4.1,28.7-21.7,62.7-13.3c8.2,2,15.4,5.7,21.3,11c-0.2-2.3,0.1-4.7,0.7-6.8 C239.5,532.7,240.9,529.9,242.8,527.4z M185,508.2c0.3,0,0.5-0.1,0.8-0.1c-0.3-0.1-0.6-0.2-0.8-0.2C184.9,508,185,508.1,185,508.2z M211.9,492.5c-0.7,5.7-4,10.5-9.5,13.5c-1,0.6-2.1,1-3.2,1.4c5.1,0.2,10.1,0.8,14.9,2c4.5-3.2,7.5-9.7,7.9-16.9 c0.4-7.4-1.9-13.9-6.3-17.3c-5.4-4.2-12.8-5.5-18.7-3.3c-4.7,1.7-7.8,5.3-8.7,10c-1.4,6.8,1.6,9.8,3.5,11c2.4,1.5,5.3,1.5,6.9,0.6 c-1.4,0.3-3,0.1-4.4-0.7c-2.4-1.4-4.3-4.7-2.5-9.7c1.5-4.2,6.2-6.4,11.3-5.2C207.7,478.9,213,483.4,211.9,492.5z M224,492.6 c-0.4,7.2-3.2,13.6-7.5,17.4c4.4,1.2,8.7,2.8,12.7,4.8c3.7-4.2,9.1-14,9-24.9c0-8.5-3.3-16-9.9-22.1c-9.1-8.6-21.6-11.6-32.7-7.8 c-9.1,3.1-15.4,10.3-16.8,19.1c-1.3,8.5,1.4,15.4,7.5,18.9c5.3,3.1,12.3,3,16.5-0.3c6.3-5,4.9-11.5,4-14.2c-1.5-1.8-3.3-2.5-4.6-2.8 c-3.5-0.8-6.8,0.6-7.8,3.3c-1,2.8-0.5,5.2,1.2,6.2c1.1,0.7,2.6,0.6,3.2-0.1c0.6-0.7,0.6-1,0.6-1.1c0-0.1-0.2-0.3-0.4-0.3 c-0.8-0.3-1.1-1.1-0.9-1.9c0.3-0.8,1.1-1.1,1.9-0.9c0.2,0.1,1.8,0.7,2.2,2.3c0.1,0.3,0.1,0.6,0.1,0.8c0.2,0.5,0.3,1.1,0.3,1.6 c0,1.4-0.8,2.8-2.4,4c-2.4,1.9-6.6,1.9-9.7-0.1c-4-2.4-5.6-7.2-4.4-13.1c1.1-5.4,4.7-9.5,10-11.5c6.6-2.4,14.7-1,20.6,3.6 C221.8,477.4,224.5,484.5,224,492.6z M242.8,512.7c-1.6,2.5-3.5,4.8-5.7,6.7c1.7,1.1,3.2,2.2,4.8,3.4 C241.9,520.7,242.1,517.1,242.8,512.7z M243.1,478.8c-5.7-16.9-19.9-27.1-37.9-27.3l-0.5,0c-12,0-26.9,4.7-32.4,18.1 c-3.7,8.9-2.8,19.8,2.3,27c1.9,2.8,5.5,5.8,8.8,7.5c0.2,0,0.4,0.1,0.5,0.3c5.2,2.3,11.9,2,17.1-0.9c4.3-2.4,7-6,7.8-10.3 c-0.8,2.1-2.2,4.2-4.7,6.2c-4.8,3.8-12.7,4-18.7,0.5c-6.8-4-9.9-11.6-8.5-21c1.5-9.5,8.2-17.3,18.1-20.6c11.7-4,25-0.9,34.7,8.3 c6.9,6.5,10.4,14.4,10.5,23.5c0,11-5.3,21.2-9.2,25.8c1.2,0.6,2.4,1.3,3.5,2C244.6,509.2,248.1,493.6,243.1,478.8z M266.1,514.1 c0.4-5.9,3.4-30.8,30.1-40.8c15.1-5.7,30.2-5.3,42.6,1.1c2.8,1.4,5.3,3.1,7.5,4.9c-0.7-0.9-1.4-1.7-2.2-2.6 c-4.4-4.8-12.1-11.2-24.5-14.5c-13.9-1.8-34.5-0.8-53.9,13.8c-22.1,16.7-22,44.2-21.8,48.3c0.3,0.2,0.5,0.4,0.8,0.7 C249.8,519.5,257.4,515.6,266.1,514.1z M324.4,539.2c-4.6-0.5-8.2-2.3-10.9-4c2.9,4.7,5,10,6.3,15.8 C321,546.8,322.6,542.8,324.4,539.2z M333.1,527c-2.6,0.7-5.3,0.7-7.9,0.1c-4.3-1.1-7.6-4.2-8.7-8.3c-1-3.8-0.1-7.7,2.4-10.2 c1.9-1.9,4-2.8,6.3-2.7c4.1,0.1,7,3.3,7.2,3.4c0.5,0.6,0.5,1.4,0,2c-0.5,0.6-1.4,0.6-2,0.2c-1.3-1-3.5-1.5-5-1.1 c-1,0.2-1.6,0.7-2,1.5c-0.6,1.4-0.3,2.6,0.2,3.3c0.8,1.5,2.5,2.6,4.2,2.9c2.7,0.3,5.8-1.3,7.3-3.8c2-3.4,0.9-9.1-2.4-12 c-2.2-2-6.6-3-9.8-3c-0.3,0-0.6,0-0.9,0c-7.5,0.5-13.6,5.3-15.8,12.4c-2.2,7,0.1,14.2,5.9,18.7c2.6,2.1,7,5.6,13.5,5.9 c0.2,0,0.3,0,0.5,0.1c1.6-2.7,3.4-5.2,5.2-7.3C331.8,528.4,332.4,527.7,333.1,527z M326.4,489.5c-13.1-4-21.5,1.8-25.4,5.7 c-6.1,6.1-9,15.2-7.2,22.4c3.7,1.6,7,3.6,9.8,6c-1.5-4.1-1.6-8.6-0.3-12.9c2.6-8.3,9.6-13.9,18.4-14.5c3.9-0.3,9.8,1,12.9,3.7 c4.3,3.8,5.7,11.1,3,15.7c-2.1,3.5-6.3,5.7-10.2,5.2c-2.6-0.3-5.2-2-6.4-4.4c-0.9-1.7-1.1-3.5-0.6-5.2c-1.3,1.7-1.7,4.2-1.1,6.6 c0.9,3.2,3.3,5.4,6.6,6.2c3.6,0.9,7.1,0.3,10.1-1.7c3.6-2.3,6.1-6.5,6.9-11.1C344.7,500.4,335.9,492.5,326.4,489.5z M352.1,489.1 c-3.1-5.2-8-9.7-14.3-12.9c-11.9-6.1-26.5-6.4-41-1c-25,9.4-28.3,32.6-28.7,38.6c3.6-0.5,7.1-0.5,10.6-0.1c4.1,0.5,8.1,1.4,11.8,2.6 c-1.1-7.8,2.2-17.1,8.4-23.3c3.3-3.3,9.6-7.9,18.9-7.9c2.9,0,6,0.4,9.5,1.5c10.8,3.3,20.7,12.4,18.6,25.2c-0.4,2.5-1.3,4.9-2.5,7 c3.4-2.1,6.9-4,10.7-5.5c1-3.1,1.3-6.8,1.3-6.8C355.7,501,354.7,494.9,352.1,489.1z M386.8,508.2c8.5-3.6,14.7-14.1,14.7-25.2 c0-9-4.2-15.9-11.4-18.7c-8.7-3.4-18.6-2.4-24.6,2.5c-3.1,2.5-6.5,7.3-5.1,15.2c1.5,8.4,5.6,10.9,8.8,11.6c4.5,1,9.3-1.2,11.1-3.8 c0.7-1,1-1.9,1.1-2.8c-0.5,0.7-1.3,1.4-2.2,2.1c-3.2,2.2-7.9,1.7-11.2-1.1c-2.9-2.5-4.9-7.3-1.9-13.1c2.7-5.2,9.2-6.5,14.4-5.6 c3.6,0.7,6.6,2.7,8.7,6c2.5,3.8,3.3,9,2.1,13.4c-1.8,6.9-7.3,12.6-14.7,15.1c-6.3,2.1-13.1,1.6-18.3-1.5c0.1,1.6,0.1,3.1-0.1,4.5 c0,0-0.2,2.6-0.9,5.3c2.1-0.7,4.2-1.3,6.3-1.8C371.6,508.6,379.4,507.8,386.8,508.2z M410.8,514.7c4.6-9.1,9.6-22.9,7.4-37.8 c-1.7-11.8-8.2-22.5-17.3-28.6c-5.9-2.9-12.4-4.4-19.1-4.6c-34.9-0.9-38.1,26.8-38.3,28.1c0,0.1,0,0.2,0,0.2c1,0.9,1.9,1.9,2.8,2.8 c6.2,6.8,10.3,15.2,11.6,23.7c0,0,0.1,0,0.1,0.1c4.7,3.7,11.3,4.6,17.6,2.4c6.5-2.2,11.3-7.1,12.8-13.1c0.9-3.7,0.3-7.9-1.8-11.1 c-1.1-1.8-3.2-4-6.7-4.7c-4-0.7-9.2,0.2-11.2,4.1c-1.9,3.6-1.4,7.1,1.2,9.5c2.3,2,5.4,2.4,7.5,0.9c1.2-0.9,1.9-1.7,1.9-2.3 c-0.1-0.6-1-1.4-1.6-1.7c-0.7-0.3-1.1-1.2-0.7-2c0.3-0.7,1.2-1.1,2-0.7c0.3,0.1,2.4,1.2,3.1,3.2c0.6,0.8,1,1.6,1.1,2.4 c0.4,1.7,0,3.5-1.3,5.3c-2.1,3.2-7.9,5.8-13.2,4.7c-3.8-0.8-8.7-3.8-10.4-13.2c-1.2-7,0.8-13.1,5.8-17.1c6.5-5.4,17.2-6.5,26.6-2.8 c8.1,3.2,12.7,10.7,12.7,20.6c0,10.4-5.3,20.6-12.9,25.5C398,509.3,404.8,511.4,410.8,514.7z M425.4,527.3c2.4-2.8,4.7-5.8,5.4-9.3 c-3.2-2.4-5.8-5.7-7.3-9.7c-3.6-9.3-1.3-20.6,5.9-29.5c-0.9-2-6.8-14.7-18.8-24.3c5,6.1,8.3,13.8,9.5,22c2.2,15.4-2.9,29.7-7.6,39 c3.1,1.9,6,4.1,8.4,6.5C422.6,523.8,424.1,525.5,425.4,527.3z M427.4,530.3c3.7-2.5,8.1-3.9,12-5.2c3.9-1.2,7.6-2.4,10.7-4.4 c-2.6,1-5.5,1.4-8.6,1.2c-2.8-0.2-5.5-0.9-8-2.2c-1.2,4.1-4.1,7.6-6.4,10.2C427.2,530,427.3,530.2,427.4,530.3z M459.9,502.5 c0.5,1.5,0.7,3.3,0.5,5.1c0,0.9,0,1.8-0.1,2.6c-0.6,4.4-3,8.6-6.5,11.5c-3.9,3.3-8.8,4.8-13.4,6.3c-4.2,1.3-8.1,2.6-11.4,5 c2.1,4.1,3.3,8.4,3.6,12.7c5.2-8.4,13.8-15.2,24.5-19.2C458.6,524.7,469,512.9,459.9,502.5z M480.4,521.9c2-3.5,4.4-13.6,1.1-22.3 c-2.5-6.8-7.8-11.2-15.7-12.9c-11.3-2.5-21.2-0.1-26.4,6.4c-3.2,4-4.1,9-2.3,13c1.1,2.5,2.7,4,4.7,4.6c1.6,0.4,3.3,0.2,4.7-0.2 c-1.7-0.8-2.8-2.1-3.3-3.8c-0.8-3.1,0.8-7.4,5.4-9.4c1.4-0.6,3-0.9,4.5-0.9c3.2,0,6.3,1.3,8.6,3.8c8.5,9.3,3.6,19.6,0.3,24.6 c2.2-0.6,4.4-1.1,6.5-1.5C472.4,522.6,476.4,522.1,480.4,521.9z M485.2,521.8c6.7,0,13.1,0.9,19,2.8c1.4-16.3-2-30.4-9.6-39.7 c-6.4-7.8-15.5-12.3-27-13.4c-21.7-2-33.9,8.2-38.2,12.7c-4.7,7.5-5.8,16-3,23.2c2.6,6.9,8.2,11.1,15.3,11.6 c9.6,0.7,14.9-5.3,15.7-11c0-0.1,0-0.3,0-0.4c-0.1-2.4-0.8-4.7-2-6.6c-0.8-0.8-1.7-1.3-2.9-1.6c-1,0.1-1.9,0.3-2.7,0.7 c-3.1,1.4-4.2,4.1-3.7,5.9c0.5,1.7,2.4,2.6,5,2.3c0.4-0.1,0.8,0.1,1.1,0.3c0.3,0.2,0.5,0.6,0.6,1c0,0.4-0.1,0.8-0.3,1.1 c-0.2,0.3-0.6,0.5-1,0.6c-0.5,0.1-0.9,0.1-1.4,0.1c-1.8,1-5.3,2.4-8.8,1.4c-2.6-0.7-4.6-2.6-6-5.7c-2.1-4.7-1.2-10.4,2.5-15 c5.7-7.1,16.3-9.7,28.4-7.1c8.5,1.8,14.4,6.7,17.2,14.1c3.1,8.3,1.5,18-0.7,22.9c0.4,0,0.7,0,1.1,0 C484.3,521.8,484.7,521.8,485.2,521.8z M546.8,568.1c-2.5-4.3-5.2-8.9-8.4-13.1c-3.5-4.6-6.9-8.5-10.2-11.9 c-11.9-12.1-25.6-18.1-41.7-18.4c22.1,3.6,34.9,18.9,47.7,41.9c15.6,28.1,21.3,30.1,35.3,31.7c7.6,0.9,15.3-1.8,20.2-7.1 c3.9-4.2,5.5-9.6,4.5-15.2c-0.8-4.1-2.4-7.3-4.8-9.8c1,2.9,0.9,6.3-0.4,9.3c-3,7.3-11.7,10.7-18.5,10.9c-0.2,0-0.3,0-0.5,0 C559.5,586.4,549.8,578.7,546.8,568.1z M545.8,560.7c0.1-3,0.7-6,1.9-9.1c-3.2-0.5-5.5,0.8-6.8,1.9 C542.5,555.6,544.1,557.9,545.8,560.7z M555.1,540.2c-12.2-4.2-20.5,0.4-23.3,2.4c2.6,2.8,5.2,5.9,8,9.3c1.5-1.2,4.5-3,8.8-2.2 C550.1,546.3,552.4,543,555.1,540.2z M567.5,532.5c-4.7-4.1-18.9-13.5-40.2-1.9c-0.4,3.1-1,5.3-1.3,6.5c1.5,1.3,2.9,2.6,4.3,4 l0.1,0.1c3.1-2.2,12.5-7.6,26.3-2.5c3.1-2.8,6.7-4.9,10.4-6.1C567.2,532.5,567.4,532.5,567.5,532.5z M569,529.9 c-1.1-6.1-5.7-11.2-9.1-14.6c-0.8-0.8-1.7-1.7-2.6-2.5c-4.4-4.2-8.9-8.6-11.2-14.4c-2.6-6.5-2-14.3,1.7-20.2 c3.7-6,10.4-10,17.4-10.5c4.8-0.3,9.3,1,12.4,3.7c3.6,3.2,5.1,8.3,3.5,12.4c-0.5,1.4-1.5,2.6-2.6,3.6c1.9-0.7,3.6-2,4.9-3.9 c2.8-4,3-9.8,0.7-15c-2.9-6.3-9.2-11.1-16.5-12.4c-6.8-1.2-14.3,0.5-20.7,4.6c-5.8,3.8-10.5,9.6-13.8,16.7 c-6.6,14.5-5.4,32.6,3.1,46.1c0.1,0.1,0.1,0.2,0.1,0.3c3.8-1.1,7.3-1.5,10.5-1.5C557.8,522.1,565.5,527.1,569,529.9z M597.4,533.4 c-1-4-3.6-7.9-7.4-11.2c-3.8-3.3-8.5-5.7-13-8.1l-0.2-0.1c-0.7-0.4-1.4-0.7-2.1-1.1c-5.1-2.7-10.8-6-15-11.1 c-4.6-5.6-6.2-12.6-4.3-18.4c1.2-3.5,3.9-6.5,7.3-8.1c3-1.4,6.2-1.6,9-0.5c1.1,0.4,2.1,1.1,3,1.9c2.5,1.6,3.9,4.4,3.6,6.9 c0,0.4-0.1,0.8-0.3,1.1c0.5-0.6,0.9-1.2,1.1-1.9c1.3-3.3,0-7.6-2.9-10.2c-2.7-2.4-6.7-3.5-10.9-3.2c-6.4,0.5-12.5,4.2-15.8,9.6 c-3.4,5.4-4,12.5-1.6,18.5c2.2,5.4,6.5,9.6,10.8,13.7c0.9,0.8,1.7,1.7,2.6,2.5c4,4,9.3,10.2,9.9,17.5c4-1,7.6-1.3,10.9-1.3 C589.3,530.1,594.6,532,597.4,533.4z"/></g></svg>